<?xml version="1.0" encoding="utf-8"?>
<!-- Generator: Adobe Illustrator 17.0.0, SVG Export Plug-In . SVG Version: 6.00 Build 0)  -->
<!DOCTYPE svg PUBLIC "-//W3C//DTD SVG 1.1//EN" "http://www.w3.org/Graphics/SVG/1.1/DTD/svg11.dtd">
<svg version="1.1" id="Capa_1" xmlns="http://www.w3.org/2000/svg" xmlns:xlink="http://www.w3.org/1999/xlink" x="0px" y="0px"
	 width="327.5px" height="237.5px" viewBox="0 0 327.5 237.5" enable-background="new 0 0 327.5 237.5" xml:space="preserve">
<path fill="#606060" d="M52.754,69.398c0-6.14,4.984-11.124,11.124-11.124s11.124,4.984,11.124,11.124s-4.984,11.124-11.124,11.124
	S52.754,75.538,52.754,69.398z M42.28,121.413l9.976-33.826c-5.994-3.836-9.976-10.542-9.976-18.197
	c0-11.946,9.668-21.588,21.597-21.588s21.606,9.642,21.606,21.588c0,7.579-3.913,14.232-9.822,18.095l16.502,31.728l-9.814-0.368
	l-5.326,8.247l-11.886-22.839l-6.491,21.982l-6.808-7.073L42.28,121.413z M52.822,85.686L52.668,85.9
	c0.026,0.009,0.051,0.017,0.069,0.034L52.822,85.686z M61.36,84.393c-2.167-0.351-4.205-1.156-6.02-2.398l-2.501,3.648l2.835,1.918
	c1.559,0.702,3.194,1.225,4.915,1.507L61.36,84.393z M76.628,84.632l-3.057-3.605c-1.678,1.43-3.614,2.449-5.729,3.04l1.25,4.556
	C71.884,87.852,74.428,86.508,76.628,84.632z M83.18,66.324L78.555,67.3c0.231,1.045,0.334,1.156,0.334,2.227
	c0,2.209-0.462,4.342-1.387,6.32l4.299,2.012c1.207-2.612,1.824-5.429,1.824-8.332C83.625,68.122,83.479,67.677,83.18,66.324z
	 M70.942,56.245c1.91,1.019,3.614,2.475,4.933,4.222l3.776-2.835c-1.721-2.304-3.956-4.213-6.465-5.575L70.942,56.245z
	 M56.556,51.098l1.73,4.41c1.764-0.719,3.622-1.053,5.532-1.053c0.3,0,0.599,0.017,0.891,0.017l0.265-4.727
	c-0.385-0.009-0.771-0.034-1.156-0.034C61.308,49.711,58.868,50.19,56.556,51.098z M45.064,63.147l4.479,1.516
	c0.694-2.047,1.858-3.973,3.357-5.541l-3.417-3.263C47.513,57.923,45.988,60.441,45.064,63.147z M50.878,77.276
	c-1.139-1.893-1.833-3.956-2.055-6.166l-4.71,0.514c0.317,2.869,1.225,5.583,2.706,8.084L50.878,77.276z M63.818,83.356
	c7.639,0,13.839-6.183,13.839-13.83c0-7.63-6.2-13.83-13.839-13.83s-13.83,6.191-13.83,13.83S56.179,83.356,63.818,83.356z
	 M317.433,19.19v199.828c0,4.41-3.58,7.981-7.99,7.981H19.99c-4.419,0-7.99-3.571-7.99-7.981V19.19c0-4.419,3.571-7.99,7.99-7.99
	h289.445C313.853,11.201,317.424,14.772,317.433,19.19z M311.71,17.5H18.189V221h293.521C311.711,221,311.711,17.5,311.71,17.5z
	 M276.508,70.922v-3.999H105.83v3.999H276.508z M276.508,95.859v-3.982H105.83v3.982H276.508z M276.508,122.808v-3.982H105.83v3.982
	H276.508z M250.107,169.616c-7.741,0.18-16.827-3.973-24.269-5.712c-2.038-0.48-4.616,1.053-5.892,3.1
	c-4.076-2.458-8.229-4.787-12.246-7.63c-2.997-2.124-7.347,1.773-7.365,4.924c-0.077,11.252,5.01,20.184,7.022,31
	c1.019,5.489,9.043-0.051,8.238-4.342c-1.182-6.363-3.734-12.194-5.378-18.283c5.207,3.091,10.422,6.123,15.012,10.302
	c3.537,3.203,8.367-3.58,7.013-6.911c-0.077-0.18-0.146-0.368-0.214-0.557c5.609,1.618,11.321,3.057,16.939,2.92
	c1.43-0.026,2.877-0.231,4.342-0.531c-4.898,4.145-9.428,8.521-12.682,13.342c-2.86,4.213,1.704,6.697,5.172,4.342
	c0.12-0.094,0.24-0.18,0.351-0.257c0.223-0.163,0.42-0.325,0.608-0.488c0.06,0.308,2.612-2.552,3.211-3.1
	c3.425-3.031,6.902-6.029,10.345-9.026c5.917-5.147,11.835-10.242,17.778-15.337c3.28-2.817,3.109-9.471-2.423-7.048
	C267.851,163.75,258.867,169.411,250.107,169.616z"/>
</svg>
