<?xml version="1.0" encoding="utf-8"?>
<!-- Generator: Adobe Illustrator 17.0.0, SVG Export Plug-In . SVG Version: 6.00 Build 0)  -->
<!DOCTYPE svg PUBLIC "-//W3C//DTD SVG 1.1//EN" "http://www.w3.org/Graphics/SVG/1.1/DTD/svg11.dtd">
<svg version="1.1" id="Capa_1" xmlns="http://www.w3.org/2000/svg" xmlns:xlink="http://www.w3.org/1999/xlink" x="0px" y="0px"
	 width="327px" height="237px" viewBox="-131.5 -86.5 327 237" enable-background="new -131.5 -86.5 327 237" xml:space="preserve">
<g>
	<g>
		<g>
			<circle cx="33.078" cy="-23.65" r="35.073"/>
			<path d="M11.142,84.54h0.574c0.024-15.835,1.309-54.553,12.856-66.948H-5.673c-4.313,0-8.671,3.492-8.671,7.817v76.221
				c0,1.728,0.595,3.318,1.59,4.572c1.694,2.127,3.889,1.709,3.776,0.595c-0.064-0.672-0.101-1.34-0.101-2.027
				C-9.079,93.617-0.008,84.54,11.142,84.54z"/>
			<path d="M37.177,122.711h11.168c-4.993-2.204-8.968-3.278-11.101-3.754C37.251,120.154,37.217,121.429,37.177,122.711z"/>
			<path d="M21.947,91.407c2.265,4.389,5.937,14.248,5.329,31.31h6.843c0.623-19.827-4.795-29.366-6.071-31.31H21.947z"/>
			<path d="M-0.973,116.051c2.836,4.011,7.487,6.666,12.765,6.666h2.527c0.186-4.646,0.043-8.742-0.305-12.322
				C7.937,110.872,1.994,114.156-0.973,116.051z"/>
			<path d="M12.393,100.872c-6.678,0.208-13.335,4.066-16.226,5.976c0,0.064-0.021,0.14-0.021,0.211c0,2.256,0.504,4.392,1.37,6.336
				c3.245-2.042,9.508-5.412,16.134-6.019C13.309,104.932,12.875,102.768,12.393,100.872z"/>
			<path d="M-3.222,102.908c3.535-2.042,9.019-4.606,14.755-5.039c-0.922-2.884-1.871-4.917-2.561-6.175
				C3.065,92.775-1.638,97.188-3.222,102.908z"/>
			<path d="M12.283,91.407c2.295,4.639,5.763,14.523,5.088,31.31h6.849c0.681-18.89-4.121-28.554-5.781-31.31H12.283z"/>
			<path d="M45.067,17.595c2.771,4.536,6.129,10.445,9.654,17.553c1.468-6.233,7.051-10.9,13.717-10.9
				c0.827,0,1.63,0.082,2.414,0.232c1.319,0.253,2.195-2.427-0.333-4.655c-1.572-1.383-3.647-2.231-5.784-2.231
				C64.736,17.595,45.067,17.595,45.067,17.595z"/>
			<path d="M52.832,65.909c-2.631-18.194-5.961-36.618-9.792-48.317H27.328c-0.61,9.624-2.665,45.649-0.708,66.948h15.484
				c3.373,0,6.104-2.735,6.104-6.104v-5.525c0-3.37,1.364-6.104,3.052-6.104C51.834,66.806,52.368,66.468,52.832,65.909z"/>
			<path d="M35.801,103.806c0.678,3.351,1.175,7.344,1.355,12.001c2.741,0.549,9.709,2.28,18.155,6.916h2.976
				c-0.131-1.499-0.433-4.716-0.882-9.187C48.034,107.282,39.647,104.709,35.801,103.806z"/>
			<path d="M55.933,97.378c-7.866-3.782-14.248-5.393-17.068-5.97h-7.264c0.986,1.831,2.311,4.816,3.431,9.096
				c2.936,0.559,11.843,2.698,22.242,9.245C56.904,106.156,56.455,101.971,55.933,97.378z"/>
			<path d="M76.872,111.479c0.317,2.594,0.607,5.201,0.827,7.856c0,0-0.415,0.601-1.227,1.41c2.069-1.126,3.886-2.659,5.271-4.563
				C80.138,114.492,78.508,112.95,76.872,111.479z"/>
			<path d="M55.024,84.436c-0.583-0.165-1.135-0.308-1.593-0.415v7.383h-3.559c1.935,0.708,4.066,1.599,6.294,2.634
				C55.817,90.986,55.439,87.772,55.024,84.436z"/>
			<path d="M77.003,107.529c2.115,1.822,4.24,3.742,6.336,5.906c0.867-1.953,1.38-4.096,1.38-6.373v-5.705
				c-3.357-3.122-6.739-5.705-9.999-7.847C75.62,98.046,76.377,102.734,77.003,107.529z"/>
			<path d="M74.372,89.631c3.339,2.057,6.834,4.557,10.353,7.618V85.797c-4.755-3.443-9.325-5.9-13.293-7.661
				C72.483,81.854,73.472,85.684,74.372,89.631z"/>
			<path d="M54.548,75.093c-0.681,1.117-1.117,2.79-1.117,4.685v1.111c0.534,0.113,1.196,0.262,1.947,0.452
				C55.115,79.29,54.832,77.193,54.548,75.093z"/>
			<path d="M81.679,73.674h-3.052V40.676c0-5.268-4.273-9.56-9.538-9.56c-5.271,0-9.554,4.291-9.554,9.56v4.322
				c3.803,8.583,7.585,18.405,10.829,29.317c4.148,1.673,9.114,4.133,14.367,7.725v-2.262
				C84.731,76.409,83.358,73.674,81.679,73.674z"/>
		</g>
	</g>
	<defs>
		<filter id="Adobe_OpacityMaskFilter" filterUnits="userSpaceOnUse" x="-14.345" y="-58.723" width="99.076" height="181.447">
			<feFlood  style="flood-color:white;flood-opacity:1" result="back"/>
			<feBlend  in="SourceGraphic" in2="back" mode="normal"/>
		</filter>
	</defs>
	<mask maskUnits="userSpaceOnUse" x="-14.345" y="-58.723" width="99.076" height="181.447" id="SVGID_1_">
		<g filter="url(#Adobe_OpacityMaskFilter)">
			<image overflow="visible" width="104" height="186" xlink:href="6EC7C834.jpg"  transform="matrix(1 0 0 1 -16.932 -60.9069)">
			</image>
		</g>
	</mask>
	<g opacity="0.75" mask="url(#SVGID_1_)">
		<g>
			<circle fill="#4C4C4C" cx="33.078" cy="-23.65" r="35.073"/>
			<path fill="#4C4C4C" d="M11.142,84.54h0.574c0.024-15.835,1.309-54.553,12.856-66.948H-5.673c-4.313,0-8.671,3.492-8.671,7.817
				v76.221c0,1.728,0.595,3.318,1.59,4.572c1.694,2.127,3.889,1.709,3.776,0.595c-0.064-0.672-0.101-1.34-0.101-2.027
				C-9.079,93.617-0.008,84.54,11.142,84.54z"/>
			<path fill="#4C4C4C" d="M37.177,122.711h11.168c-4.993-2.204-8.968-3.278-11.101-3.754
				C37.251,120.154,37.217,121.429,37.177,122.711z"/>
			<path fill="#4C4C4C" d="M21.947,91.407c2.265,4.389,5.937,14.248,5.329,31.31h6.843c0.623-19.827-4.795-29.366-6.071-31.31
				H21.947z"/>
			<path fill="#4C4C4C" d="M-0.973,116.051c2.836,4.011,7.487,6.666,12.765,6.666h2.527c0.186-4.646,0.043-8.742-0.305-12.322
				C7.937,110.872,1.994,114.156-0.973,116.051z"/>
			<path fill="#4C4C4C" d="M12.393,100.872c-6.678,0.208-13.335,4.066-16.226,5.976c0,0.064-0.021,0.14-0.021,0.211
				c0,2.256,0.504,4.392,1.37,6.336c3.245-2.042,9.508-5.412,16.134-6.019C13.309,104.932,12.875,102.768,12.393,100.872z"/>
			<path fill="#4C4C4C" d="M-3.222,102.908c3.535-2.042,9.019-4.606,14.755-5.039c-0.922-2.884-1.871-4.917-2.561-6.175
				C3.065,92.775-1.638,97.188-3.222,102.908z"/>
			<path fill="#4C4C4C" d="M12.283,91.407c2.295,4.639,5.763,14.523,5.088,31.31h6.849c0.681-18.89-4.121-28.554-5.781-31.31H12.283
				z"/>
			<path fill="#4C4C4C" d="M45.067,17.595c2.771,4.536,6.129,10.445,9.654,17.553c1.468-6.233,7.051-10.9,13.717-10.9
				c0.827,0,1.63,0.082,2.414,0.232c1.319,0.253,2.195-2.427-0.333-4.655c-1.572-1.383-3.647-2.231-5.784-2.231
				C64.736,17.595,45.067,17.595,45.067,17.595z"/>
			<path fill="#4C4C4C" d="M52.832,65.909c-2.631-18.194-5.961-36.618-9.792-48.317H27.328c-0.61,9.624-2.665,45.649-0.708,66.948
				h15.484c3.373,0,6.104-2.735,6.104-6.104v-5.525c0-3.37,1.364-6.104,3.052-6.104C51.834,66.806,52.368,66.468,52.832,65.909z"/>
			<path fill="#4C4C4C" d="M35.801,103.806c0.678,3.351,1.175,7.344,1.355,12.001c2.741,0.549,9.709,2.28,18.155,6.916h2.976
				c-0.131-1.499-0.433-4.716-0.882-9.187C48.034,107.282,39.647,104.709,35.801,103.806z"/>
			<path fill="#4C4C4C" d="M55.933,97.378c-7.866-3.782-14.248-5.393-17.068-5.97h-7.264c0.986,1.831,2.311,4.816,3.431,9.096
				c2.936,0.559,11.843,2.698,22.242,9.245C56.904,106.156,56.455,101.971,55.933,97.378z"/>
			<path fill="#4C4C4C" d="M76.872,111.479c0.317,2.594,0.607,5.201,0.827,7.856c0,0-0.415,0.601-1.227,1.41
				c2.069-1.126,3.886-2.659,5.271-4.563C80.138,114.492,78.508,112.95,76.872,111.479z"/>
			<path fill="#4C4C4C" d="M55.024,84.436c-0.583-0.165-1.135-0.308-1.593-0.415v7.383h-3.559c1.935,0.708,4.066,1.599,6.294,2.634
				C55.817,90.986,55.439,87.772,55.024,84.436z"/>
			<path fill="#4C4C4C" d="M77.003,107.529c2.115,1.822,4.24,3.742,6.336,5.906c0.867-1.953,1.38-4.096,1.38-6.373v-5.705
				c-3.357-3.122-6.739-5.705-9.999-7.847C75.62,98.046,76.377,102.734,77.003,107.529z"/>
			<path fill="#4C4C4C" d="M74.372,89.631c3.339,2.057,6.834,4.557,10.353,7.618V85.797c-4.755-3.443-9.325-5.9-13.293-7.661
				C72.483,81.854,73.472,85.684,74.372,89.631z"/>
			<path fill="#4C4C4C" d="M54.548,75.093c-0.681,1.117-1.117,2.79-1.117,4.685v1.111c0.534,0.113,1.196,0.262,1.947,0.452
				C55.115,79.29,54.832,77.193,54.548,75.093z"/>
			<path fill="#4C4C4C" d="M81.679,73.674h-3.052V40.676c0-5.268-4.273-9.56-9.538-9.56c-5.271,0-9.554,4.291-9.554,9.56v4.322
				c3.803,8.583,7.585,18.405,10.829,29.317c4.148,1.673,9.114,4.133,14.367,7.725v-2.262
				C84.731,76.409,83.358,73.674,81.679,73.674z"/>
		</g>
	</g>
</g>
</svg>
