<?xml version="1.0" encoding="utf-8"?>
<!-- Generator: Adobe Illustrator 17.0.0, SVG Export Plug-In . SVG Version: 6.00 Build 0)  -->
<!DOCTYPE svg PUBLIC "-//W3C//DTD SVG 1.1//EN" "http://www.w3.org/Graphics/SVG/1.1/DTD/svg11.dtd">
<svg version="1.1" id="图层_1" xmlns="http://www.w3.org/2000/svg" xmlns:xlink="http://www.w3.org/1999/xlink" x="0px" y="0px"
	 width="127.697px" height="31px" viewBox="0 0 127.697 31" enable-background="new 0 0 127.697 31" xml:space="preserve">
<g>
	<g>
		
			<image overflow="visible" enable-background="new    " width="219" height="56" xlink:href="CDA7C76F.png"  transform="matrix(0.6001 0 0 0.6001 0 0.3264)">
		</image>
		<g>
			<g>
				<g>
					<path fill="#83BF2D" d="M28.82,11.644c-0.008-0.019-0.016-0.037-0.025-0.056c-0.917-1.996-2.322-3.728-4.057-5.023
						C17.714,1.037,8.679,6.232,7.783,8.776c1.694-2.797,13.96-7.462,19.38,5.404c0.13,0.308,0.261,0.661,0.347,1.023
						c0.004-0.002,0.008-0.005,0.012-0.007c0.091,0.591,0.143,1.195,0.143,1.812c0,6.57-5.325,11.894-11.894,11.894
						c-3.242,0-6.18-1.298-8.325-3.402c2.359,2.684,5.814,4.378,9.667,4.378c7.107,0,12.871-5.762,12.871-12.871
						C29.984,15.105,29.565,13.286,28.82,11.644z"/>
					<path fill="#83BF2D" d="M26.771,14.612C21.414,2.873,11.36,5.884,8.113,8.622c1.644-1.384,4.475-1.582,7.139-0.301
						c4.204,2.021,3.069,6.284,8.539,7.259c1.071,0.19,2.163,0.197,3.146-0.205C26.938,15.263,26.87,14.831,26.771,14.612z"/>
					<path fill="#185E31" d="M17.552,24.106h-1.346c-1.84,0-3.187-0.18-4.039-0.538c-2.872-1.077-4.308-3.141-4.308-6.193
						c0-0.943,0.224-1.997,0.673-3.164c1.234-2.468,3.837-3.702,7.809-3.702h0.122c-0.617-0.655-1.346-1.266-2.308-1.761
						c-1.095-0.563-2.651-0.818-4.106-0.722c-0.545,0.22-1.055,0.481-1.518,0.8c-2.961,2.423-4.442,5.116-4.442,8.078v0.741
						c0,2.816,0.942,5.061,2.828,6.732c1.795,1.975,4.33,2.961,7.606,2.961h3.029c0.135-0.033,0.202-0.169,0.202-0.404v-2.423
						C17.753,24.285,17.686,24.15,17.552,24.106z"/>
				</g>
				<g>
					<path fill="#185E31" d="M32.305,10.117l-1.127-4.178h3.663l1.127,4.178H32.305z M36.344,23.922
						c0.494,1.572,1.667,2.817,4.086,2.817h12.958v1.338H40.265c-2.488,0-3.639-0.986-4.225-1.878
						c-0.211,0.728-0.516,1.361-0.868,1.901h-3.874c0.892-1.385,1.479-3.006,1.479-4.883v-9.507c0-0.493-0.399-0.893-0.891-0.893
						H31.18V11.48h3.615c0.868,0,1.548,0.728,1.548,1.573L36.344,23.922L36.344,23.922z M37.424,8.662h2.3l0.776-2.794h3.593
						l-0.776,2.794h10.025V10h-10.4l-1.455,5.353c-0.023,0.142,0,0.282,0.094,0.399c0.071,0.118,0.211,0.187,0.375,0.187h2.325
						v-3.896h3.568v3.896h5.095v1.339h-5.095v3.426h5.493v1.339h-5.493v3.825h-3.568v-3.825h-6.854v-1.339h6.854v-3.426h-5.048
						c-0.446,0-0.844-0.187-1.15-0.564c-0.258-0.375-0.352-0.799-0.236-1.221l1.503-5.495h-1.924L37.424,8.662L37.424,8.662z"/>
					<path fill="#185E31" d="M61.043,22.56c0,1.878-0.47,4.061-1.479,5.469h-3.732c1.221-1.714,1.643-3.896,1.643-5.469V9.624
						c0-0.892,0.728-1.573,1.573-1.573h7.841V5.893h3.568v2.158h7.583v1.339H61.936c-0.494,0-0.893,0.399-0.893,0.891
						C61.043,10.281,61.043,22.56,61.043,22.56z M66.256,23.758c-0.424,1.572-0.845,3.051-1.456,4.319h-3.568
						c0.587-1.338,1.104-2.771,1.456-4.319H66.256z M62.688,23.053l-1.08-2.746h3.568l1.081,2.746H62.688z M71.162,9.954v1.221
						h4.436c0.869,0,1.55,0.68,1.55,1.572v1.903h0.892v1.338h-0.892v1.925c0,0.868-0.681,1.548-1.55,1.548h-4.436v7.066
						c0,0.868-0.705,1.55-1.573,1.55h-3.662V26.74h0.776c0.47,0,0.892-0.375,0.892-0.893v-6.385h-5.047v-1.338h5.047v-2.136h-5.939
						v-1.338h5.939v-2.136h-5.047v-1.338h5.047V9.953L71.162,9.954L71.162,9.954z M71.162,12.512v2.136h2.442v-1.244
						c0-0.494-0.399-0.893-0.892-0.893H71.162z M73.603,17.23v-1.244h-2.442v2.136h1.549C73.205,18.124,73.603,17.725,73.603,17.23z
						 M72.288,23.053l1.08-2.746h3.568l-1.08,2.746H72.288z M75.857,23.758c0.329,1.548,0.868,2.982,1.479,4.319h-3.568
						c-0.635-1.268-1.056-2.748-1.479-4.319H75.857z"/>
					<path fill="#185E31" d="M83.443,28.1V17.794h-2.958c1.644-3.967,2.888-7.934,3.71-11.901h3.614
						c-0.422,2.158-0.939,4.224-1.596,6.243h0.799V28.1H83.443L83.443,28.1z M88.678,9.86V8.521h5.234V5.892h3.546v2.629h5.235V9.86
						H88.678z M100.885,19.908c0.845,0,1.573,0.68,1.573,1.525v5.071c0,0.868-0.727,1.55-1.573,1.55H90.462
						c-0.845,0-1.549-0.682-1.549-1.55v-5.071c0-0.844,0.705-1.525,1.549-1.525L100.885,19.908L100.885,19.908z M89.194,13.804
						v-1.338h12.958v1.338H89.194z M89.194,17.771v-1.338h12.958v1.338C102.152,17.771,89.194,17.771,89.194,17.771z M97.998,26.715
						c0.493,0,0.891-0.399,0.891-0.891v-3.71c0-0.493-0.399-0.891-0.891-0.891h-4.624c-0.494,0-0.892,0.399-0.892,0.891v3.71
						c0,0.493,0.399,0.891,0.892,0.891H97.998z"/>
					<path fill="#185E31" d="M105.138,27.49c0.657-2.207,1.056-4.274,1.221-6.738h3.405c-0.164,2.348-0.516,4.741-1.221,6.738
						H105.138z M106.945,9.179c0-0.843,0.704-1.525,1.549-1.525h2.84l0.728-1.785h3.663l-0.751,1.785h8.992
						c0.868,0,1.548,0.682,1.548,1.525v8.1c0,0.844-0.68,1.573-1.548,1.573h-15.471c-0.844,0-1.549-0.728-1.549-1.573v-8.1H106.945z
						 M110.513,10.916h11.433V9.86c0-0.494-0.399-0.893-0.892-0.893h-9.649c-0.493,0-0.892,0.399-0.892,0.893V10.916z
						 M110.513,14.249h11.433v-1.995h-11.433V14.249z M121.946,15.589h-11.433v1.033c0,0.493,0.399,0.892,0.892,0.892h9.649
						c0.493,0,0.892-0.399,0.892-0.892V15.589z M122.698,26.74v1.338h-10.071c-0.845,0-1.549-0.682-1.549-1.55v-6.433h3.568v5.752
						c0,0.493,0.399,0.893,0.892,0.893H122.698z M117.698,25.682c-0.586-1.736-0.986-3.685-1.244-5.868h3.451
						c0.258,2.018,0.657,3.967,1.245,5.868H117.698z M123.989,27.232c-0.728-1.903-1.267-4.132-1.62-6.667h3.381
						c0.328,2.393,0.844,4.647,1.596,6.667H123.989z"/>
				</g>
			</g>
		</g>
	</g>
	<g>
		<g>
			<g>
				<g>
					<path fill="#FFFBF0" d="M28.82,11.644c-0.008-0.019-0.016-0.037-0.025-0.056c-0.917-1.996-2.322-3.728-4.057-5.023
						C17.714,1.037,8.679,6.232,7.783,8.776c1.694-2.797,13.96-7.462,19.38,5.404c0.13,0.308,0.261,0.661,0.347,1.023
						c0.004-0.002,0.008-0.005,0.012-0.007c0.091,0.591,0.143,1.195,0.143,1.812c0,6.57-5.325,11.894-11.894,11.894
						c-3.242,0-6.18-1.298-8.325-3.402c2.359,2.684,5.814,4.378,9.667,4.378c7.107,0,12.871-5.762,12.871-12.871
						C29.984,15.105,29.565,13.286,28.82,11.644z"/>
					<path fill="#FFFBF0" d="M26.771,14.612C21.414,2.873,11.36,5.884,8.113,8.622c1.644-1.384,4.475-1.582,7.139-0.301
						c4.204,2.021,3.069,6.284,8.539,7.259c1.071,0.19,2.163,0.197,3.146-0.205C26.938,15.263,26.87,14.831,26.771,14.612z"/>
					<path fill="#FFFBF0" d="M17.552,24.106h-1.346c-1.84,0-3.187-0.18-4.039-0.538c-2.872-1.077-4.308-3.141-4.308-6.193
						c0-0.943,0.224-1.997,0.673-3.164c1.234-2.468,3.837-3.702,7.809-3.702h0.122c-0.617-0.655-1.346-1.266-2.308-1.761
						c-1.095-0.563-2.651-0.818-4.106-0.722c-0.545,0.22-1.055,0.481-1.518,0.8c-2.961,2.423-4.442,5.116-4.442,8.078v0.741
						c0,2.816,0.942,5.061,2.828,6.732c1.795,1.975,4.33,2.961,7.606,2.961h3.029c0.135-0.033,0.202-0.169,0.202-0.404v-2.423
						C17.753,24.285,17.686,24.15,17.552,24.106z"/>
				</g>
				<g>
					<path fill="#FFFBF0" d="M32.305,10.117l-1.127-4.178h3.663l1.127,4.178H32.305z M36.344,23.922
						c0.494,1.572,1.667,2.817,4.086,2.817h12.958v1.338H40.265c-2.488,0-3.639-0.986-4.225-1.878
						c-0.211,0.728-0.516,1.361-0.868,1.901h-3.874c0.892-1.385,1.479-3.006,1.479-4.883v-9.507c0-0.493-0.399-0.893-0.891-0.893
						H31.18V11.48h3.615c0.868,0,1.548,0.728,1.548,1.573L36.344,23.922L36.344,23.922z M37.424,8.662h2.3l0.776-2.794h3.593
						l-0.776,2.794h10.025V10h-10.4l-1.455,5.353c-0.023,0.142,0,0.282,0.094,0.399c0.071,0.118,0.211,0.187,0.375,0.187h2.325
						v-3.896h3.568v3.896h5.095v1.339h-5.095v3.426h5.493v1.339h-5.493v3.825h-3.568v-3.825h-6.854v-1.339h6.854v-3.426h-5.048
						c-0.446,0-0.844-0.187-1.15-0.564c-0.258-0.375-0.352-0.799-0.236-1.221l1.503-5.495h-1.924L37.424,8.662L37.424,8.662z"/>
					<path fill="#FFFBF0" d="M61.043,22.56c0,1.878-0.47,4.061-1.479,5.469h-3.732c1.221-1.714,1.643-3.896,1.643-5.469V9.624
						c0-0.892,0.728-1.573,1.573-1.573h7.841V5.893h3.568v2.158h7.583v1.339H61.936c-0.494,0-0.893,0.399-0.893,0.891
						C61.043,10.281,61.043,22.56,61.043,22.56z M66.256,23.758c-0.424,1.572-0.845,3.051-1.456,4.319h-3.568
						c0.587-1.338,1.104-2.771,1.456-4.319H66.256z M62.688,23.053l-1.08-2.746h3.568l1.081,2.746H62.688z M71.162,9.954v1.221
						h4.436c0.869,0,1.55,0.68,1.55,1.572v1.903h0.892v1.338h-0.892v1.925c0,0.868-0.681,1.548-1.55,1.548h-4.436v7.066
						c0,0.868-0.705,1.55-1.573,1.55h-3.662V26.74h0.776c0.47,0,0.892-0.375,0.892-0.893v-6.385h-5.047v-1.338h5.047v-2.136h-5.939
						v-1.338h5.939v-2.136h-5.047v-1.338h5.047V9.953L71.162,9.954L71.162,9.954z M71.162,12.512v2.136h2.442v-1.244
						c0-0.494-0.399-0.893-0.892-0.893H71.162z M73.603,17.23v-1.244h-2.442v2.136h1.549C73.205,18.124,73.603,17.725,73.603,17.23z
						 M72.288,23.053l1.08-2.746h3.568l-1.08,2.746H72.288z M75.857,23.758c0.329,1.548,0.868,2.982,1.479,4.319h-3.568
						c-0.635-1.268-1.056-2.748-1.479-4.319H75.857z"/>
					<path fill="#FFFBF0" d="M83.443,28.1V17.794h-2.958c1.644-3.967,2.888-7.934,3.71-11.901h3.614
						c-0.422,2.158-0.939,4.224-1.596,6.243h0.799V28.1H83.443L83.443,28.1z M88.678,9.86V8.521h5.234V5.892h3.546v2.629h5.235V9.86
						H88.678z M100.885,19.908c0.845,0,1.573,0.68,1.573,1.525v5.071c0,0.868-0.727,1.55-1.573,1.55H90.462
						c-0.845,0-1.549-0.682-1.549-1.55v-5.071c0-0.844,0.705-1.525,1.549-1.525L100.885,19.908L100.885,19.908z M89.194,13.804
						v-1.338h12.958v1.338H89.194z M89.194,17.771v-1.338h12.958v1.338C102.152,17.771,89.194,17.771,89.194,17.771z M97.998,26.715
						c0.493,0,0.891-0.399,0.891-0.891v-3.71c0-0.493-0.399-0.891-0.891-0.891h-4.624c-0.494,0-0.892,0.399-0.892,0.891v3.71
						c0,0.493,0.399,0.891,0.892,0.891H97.998z"/>
					<path fill="#FFFBF0" d="M105.138,27.49c0.657-2.207,1.056-4.274,1.221-6.738h3.405c-0.164,2.348-0.516,4.741-1.221,6.738
						H105.138z M106.945,9.179c0-0.843,0.704-1.525,1.549-1.525h2.84l0.728-1.785h3.663l-0.751,1.785h8.992
						c0.868,0,1.548,0.682,1.548,1.525v8.1c0,0.844-0.68,1.573-1.548,1.573h-15.471c-0.844,0-1.549-0.728-1.549-1.573v-8.1H106.945z
						 M110.513,10.916h11.433V9.86c0-0.494-0.399-0.893-0.892-0.893h-9.649c-0.493,0-0.892,0.399-0.892,0.893V10.916z
						 M110.513,14.249h11.433v-1.995h-11.433V14.249z M121.946,15.589h-11.433v1.033c0,0.493,0.399,0.892,0.892,0.892h9.649
						c0.493,0,0.892-0.399,0.892-0.892V15.589z M122.698,26.74v1.338h-10.071c-0.845,0-1.549-0.682-1.549-1.55v-6.433h3.568v5.752
						c0,0.493,0.399,0.893,0.892,0.893H122.698z M117.698,25.682c-0.586-1.736-0.986-3.685-1.244-5.868h3.451
						c0.258,2.018,0.657,3.967,1.245,5.868H117.698z M123.989,27.232c-0.728-1.903-1.267-4.132-1.62-6.667h3.381
						c0.328,2.393,0.844,4.647,1.596,6.667H123.989z"/>
				</g>
			</g>
		</g>
	</g>
</g>
<g>
	
		<image overflow="visible" enable-background="new    " width="219" height="56" xlink:href="CDA7C76F.png"  transform="matrix(0.6001 0 0 0.6001 -2.0801 -0.6736)">
	</image>
	<g>
		<g>
			<g>
				<path fill="#83BF2D" d="M26.74,10.644c-0.008-0.019-0.016-0.037-0.025-0.056c-0.917-1.996-2.322-3.728-4.057-5.023
					C15.634,0.037,6.599,5.232,5.703,7.776c1.694-2.797,13.96-7.462,19.38,5.404c0.13,0.308,0.261,0.661,0.347,1.023
					c0.004-0.002,0.008-0.005,0.012-0.007c0.091,0.591,0.143,1.195,0.143,1.812c0,6.57-5.325,11.894-11.894,11.894
					c-3.242,0-6.18-1.298-8.325-3.402c2.359,2.684,5.814,4.378,9.667,4.378c7.107,0,12.871-5.762,12.871-12.871
					C27.904,14.105,27.485,12.286,26.74,10.644z"/>
				<path fill="#83BF2D" d="M24.691,13.612C19.334,1.873,9.28,4.884,6.033,7.622c1.644-1.384,4.475-1.582,7.139-0.301
					c4.204,2.021,3.069,6.284,8.539,7.259c1.071,0.19,2.163,0.197,3.146-0.205C24.858,14.263,24.79,13.831,24.691,13.612z"/>
				<path fill="#185E31" d="M15.471,23.106h-1.346c-1.84,0-3.187-0.18-4.039-0.538c-2.872-1.077-4.308-3.141-4.308-6.193
					c0-0.943,0.224-1.997,0.673-3.164c1.234-2.468,3.837-3.702,7.809-3.702h0.122c-0.617-0.655-1.346-1.266-2.308-1.761
					c-1.095-0.563-2.651-0.818-4.106-0.722c-0.545,0.22-1.055,0.481-1.518,0.8c-2.961,2.423-4.442,5.116-4.442,8.078v0.741
					c0,2.816,0.942,5.061,2.828,6.732c1.795,1.975,4.33,2.961,7.606,2.961h3.029c0.135-0.033,0.202-0.169,0.202-0.404v-2.423
					C15.673,23.285,15.606,23.15,15.471,23.106z"/>
			</g>
			<g>
				<path fill="#185E31" d="M30.225,9.117l-1.127-4.178h3.663l1.127,4.178H30.225z M34.264,22.922
					c0.494,1.572,1.667,2.817,4.086,2.817h12.958v1.338H38.184c-2.488,0-3.639-0.986-4.225-1.878
					c-0.211,0.728-0.516,1.361-0.868,1.901h-3.874c0.892-1.385,1.479-3.006,1.479-4.883v-9.507c0-0.493-0.399-0.893-0.891-0.893
					H29.1V10.48h3.615c0.868,0,1.548,0.728,1.548,1.573L34.264,22.922L34.264,22.922z M35.344,7.662h2.3l0.776-2.794h3.593
					l-0.776,2.794h10.025V9h-10.4l-1.455,5.353c-0.023,0.142,0,0.282,0.094,0.399c0.071,0.118,0.211,0.187,0.375,0.187h2.325v-3.896
					h3.568v3.896h5.095v1.339h-5.095v3.426h5.493v1.339h-5.493v3.825h-3.568v-3.825h-6.854v-1.339h6.854v-3.426h-5.048
					c-0.446,0-0.844-0.187-1.15-0.564c-0.258-0.375-0.352-0.799-0.236-1.221l1.503-5.495h-1.924L35.344,7.662L35.344,7.662z"/>
				<path fill="#185E31" d="M58.963,21.56c0,1.878-0.47,4.061-1.479,5.469h-3.732c1.221-1.714,1.643-3.896,1.643-5.469V8.624
					c0-0.892,0.728-1.573,1.573-1.573h7.841V4.893h3.568v2.158h7.583v1.339H59.856c-0.494,0-0.893,0.399-0.893,0.891
					C58.963,9.281,58.963,21.56,58.963,21.56z M64.176,22.758c-0.424,1.572-0.845,3.051-1.456,4.319h-3.568
					c0.587-1.338,1.104-2.771,1.456-4.319H64.176z M60.607,22.053l-1.08-2.746h3.568l1.081,2.746H60.607z M69.082,8.954v1.221h4.436
					c0.869,0,1.55,0.68,1.55,1.572v1.903h0.892v1.338h-0.892v1.925c0,0.868-0.681,1.548-1.55,1.548h-4.436v7.066
					c0,0.868-0.705,1.55-1.573,1.55h-3.662V25.74h0.776c0.47,0,0.892-0.375,0.892-0.893v-6.385h-5.047v-1.338h5.047v-2.136h-5.939
					v-1.338h5.939v-2.136h-5.047v-1.338h5.047V8.953L69.082,8.954L69.082,8.954z M69.082,11.512v2.136h2.442v-1.244
					c0-0.494-0.399-0.893-0.892-0.893H69.082z M71.523,16.23v-1.244h-2.442v2.136h1.549C71.125,17.124,71.523,16.725,71.523,16.23z
					 M70.208,22.053l1.08-2.746h3.568l-1.08,2.746H70.208z M73.777,22.758c0.329,1.548,0.868,2.982,1.479,4.319h-3.568
					c-0.635-1.268-1.056-2.748-1.479-4.319H73.777z"/>
				<path fill="#185E31" d="M81.363,27.1V16.794h-2.958c1.644-3.967,2.888-7.934,3.71-11.901h3.614
					c-0.422,2.158-0.939,4.224-1.596,6.243h0.799V27.1H81.363L81.363,27.1z M86.598,8.86V7.521h5.234V4.892h3.546v2.629h5.235V8.86
					H86.598z M98.805,18.908c0.845,0,1.573,0.68,1.573,1.525v5.071c0,0.868-0.727,1.55-1.573,1.55H88.382
					c-0.845,0-1.549-0.682-1.549-1.55v-5.071c0-0.844,0.705-1.525,1.549-1.525L98.805,18.908L98.805,18.908z M87.114,12.804v-1.338
					h12.958v1.338H87.114z M87.114,16.771v-1.338h12.958v1.338C100.072,16.771,87.114,16.771,87.114,16.771z M95.917,25.715
					c0.493,0,0.891-0.399,0.891-0.891v-3.71c0-0.493-0.399-0.891-0.891-0.891h-4.624c-0.494,0-0.892,0.399-0.892,0.891v3.71
					c0,0.493,0.399,0.891,0.892,0.891H95.917z"/>
				<path fill="#185E31" d="M103.058,26.49c0.657-2.207,1.056-4.274,1.221-6.738h3.405c-0.164,2.348-0.516,4.741-1.221,6.738
					H103.058z M104.865,8.179c0-0.843,0.704-1.525,1.549-1.525h2.84l0.728-1.785h3.663l-0.751,1.785h8.992
					c0.868,0,1.548,0.682,1.548,1.525v8.1c0,0.844-0.68,1.573-1.548,1.573h-15.471c-0.844,0-1.549-0.728-1.549-1.573v-8.1H104.865z
					 M108.433,9.916h11.433V8.86c0-0.494-0.399-0.893-0.892-0.893h-9.649c-0.493,0-0.892,0.399-0.892,0.893V9.916z M108.433,13.249
					h11.433v-1.995h-11.433V13.249z M119.866,14.589h-11.433v1.033c0,0.493,0.399,0.892,0.892,0.892h9.649
					c0.493,0,0.892-0.399,0.892-0.892V14.589z M120.618,25.74v1.338h-10.071c-0.845,0-1.549-0.682-1.549-1.55v-6.433h3.568v5.752
					c0,0.493,0.399,0.893,0.892,0.893H120.618z M115.618,24.682c-0.586-1.736-0.986-3.685-1.244-5.868h3.451
					c0.258,2.018,0.657,3.967,1.245,5.868H115.618z M121.909,26.232c-0.728-1.903-1.267-4.132-1.62-6.667h3.381
					c0.328,2.393,0.844,4.647,1.596,6.667H121.909z"/>
			</g>
		</g>
	</g>
</g>
</svg>
