<?xml version="1.0" encoding="utf-8"?>
<!-- Generator: Adobe Illustrator 17.0.0, SVG Export Plug-In . SVG Version: 6.00 Build 0)  -->
<!DOCTYPE svg PUBLIC "-//W3C//DTD SVG 1.1//EN" "http://www.w3.org/Graphics/SVG/1.1/DTD/svg11.dtd">
<svg version="1.1" id="图层_1" xmlns="http://www.w3.org/2000/svg" xmlns:xlink="http://www.w3.org/1999/xlink" x="0px" y="0px"
	 width="127.697px" height="31px" viewBox="41.151 9.99 127.697 31" enable-background="new 41.151 9.99 127.697 31"
	 xml:space="preserve">
<g>
	
		<image overflow="visible" enable-background="new    " width="217" height="56" xlink:href="CDA7C76F.png"  transform="matrix(0.5885 0 0 0.5885 41.1514 9.9895)">
	</image>
	<g>
		<g>
			<g>
				<path fill="#83BF2D" d="M69.134,21.134c-0.008-0.018-0.016-0.036-0.024-0.054c-0.892-1.941-2.257-3.624-3.944-4.883
					c-6.829-5.375-15.613-0.325-16.484,2.149c1.647-2.719,13.572-7.255,18.842,5.254c0.126,0.299,0.254,0.643,0.337,0.995
					c0.004-0.002,0.008-0.005,0.012-0.007c0.088,0.575,0.139,1.162,0.139,1.762c0,6.387-5.177,11.564-11.564,11.564
					c-3.152,0-6.008-1.262-8.094-3.307c2.293,2.609,5.652,4.256,9.398,4.256c6.91,0,12.513-5.602,12.513-12.513
					C70.266,24.499,69.859,22.73,69.134,21.134z"/>
				<path fill="#83BF2D" d="M67.142,24.019c-5.208-11.412-14.982-8.485-18.139-5.823c1.598-1.346,4.351-1.538,6.941-0.293
					c4.087,1.965,2.984,6.109,8.302,7.057c1.041,0.185,2.103,0.192,3.059-0.199C67.305,24.652,67.239,24.232,67.142,24.019z"/>
				<path fill="#185E31" d="M58.179,33.25h-1.309c-1.789,0-3.098-0.175-3.927-0.523c-2.792-1.047-4.188-3.054-4.188-6.021
					c0-0.917,0.218-1.942,0.654-3.076c1.2-2.399,3.73-3.599,7.592-3.599h0.119c-0.6-0.637-1.309-1.231-2.244-1.712
					c-1.065-0.547-2.577-0.795-3.992-0.702c-0.53,0.214-1.026,0.468-1.476,0.778c-2.879,2.356-4.319,4.974-4.319,7.854v0.72
					c0,2.738,0.916,4.92,2.749,6.545c1.745,1.92,4.21,2.879,7.395,2.879h2.945c0.131-0.032,0.196-0.164,0.196-0.393v-2.356
					C58.375,33.424,58.31,33.292,58.179,33.25z"/>
			</g>
			<g>
				<path fill="#185E31" d="M72.523,19.649l-1.096-4.062h3.561l1.096,4.062H72.523z M76.449,33.071
					c0.48,1.528,1.621,2.739,3.972,2.739h12.598v1.301H80.261c-2.419,0-3.538-0.959-4.108-1.826
					c-0.205,0.708-0.502,1.323-0.844,1.848h-3.766c0.867-1.347,1.438-2.922,1.438-4.747v-9.243c0-0.479-0.388-0.868-0.866-0.868
					h-0.686v-1.301h3.515c0.844,0,1.505,0.708,1.505,1.529L76.449,33.071L76.449,33.071z M77.499,18.235h2.236l0.754-2.716h3.493
					l-0.754,2.716h9.746v1.301H82.863l-1.415,5.204c-0.022,0.138,0,0.274,0.091,0.388c0.069,0.115,0.205,0.182,0.365,0.182h2.26
					v-3.788h3.469v3.788h4.953v1.302h-4.953v3.331h5.34v1.302h-5.34v3.719h-3.469v-3.719h-6.664v-1.302h6.664v-3.331h-4.908
					c-0.434,0-0.821-0.182-1.118-0.548c-0.251-0.365-0.342-0.777-0.229-1.187l1.461-5.342h-1.871L77.499,18.235L77.499,18.235z"/>
				<path fill="#185E31" d="M100.462,31.747c0,1.826-0.457,3.948-1.438,5.317h-3.628c1.187-1.666,1.597-3.788,1.597-5.317V19.17
					c0-0.867,0.708-1.529,1.529-1.529h7.623v-2.098h3.469v2.098h7.372v1.302H101.33c-0.48,0-0.868,0.388-0.868,0.866V31.747z
					 M105.53,32.911c-0.412,1.528-0.822,2.966-1.416,4.199h-3.469c0.571-1.301,1.073-2.694,1.416-4.199H105.53z M102.061,32.226
					l-1.05-2.67h3.469l1.051,2.67H102.061z M110.3,19.491v1.187h4.313c0.845,0,1.507,0.661,1.507,1.528v1.85h0.867v1.301h-0.867
					v1.872c0,0.844-0.662,1.505-1.507,1.505H110.3v6.87c0,0.844-0.685,1.507-1.529,1.507h-3.56v-1.301h0.754
					c0.457,0,0.867-0.365,0.867-0.868v-6.208h-4.907v-1.301h4.907v-2.077h-5.774v-1.301h5.774v-2.077h-4.907v-1.301h4.907v-1.187
					L110.3,19.491L110.3,19.491z M110.3,21.978v2.077h2.374v-1.209c0-0.48-0.388-0.868-0.867-0.868H110.3z M112.673,26.565v-1.209
					h-2.374v2.077h1.506C112.286,27.434,112.673,27.046,112.673,26.565z M111.395,32.226l1.05-2.67h3.469l-1.05,2.67H111.395z
					 M114.865,32.911c0.32,1.505,0.844,2.899,1.438,4.199h-3.469c-0.617-1.233-1.027-2.672-1.438-4.199H114.865z"/>
				<path fill="#185E31" d="M122.24,37.133v-10.02h-2.876c1.598-3.857,2.808-7.714,3.607-11.57h3.514
					c-0.41,2.098-0.913,4.107-1.552,6.07h0.777v15.52L122.24,37.133L122.24,37.133z M127.329,19.399v-1.301h5.089v-2.556h3.447
					v2.556h5.09v1.301H127.329z M139.197,29.168c0.822,0,1.529,0.661,1.529,1.483v4.93c0,0.844-0.707,1.507-1.529,1.507h-10.133
					c-0.822,0-1.506-0.663-1.506-1.507v-4.93c0-0.821,0.685-1.483,1.506-1.483L139.197,29.168L139.197,29.168z M127.831,23.234
					v-1.301h12.598v1.301H127.831z M127.831,27.091V25.79h12.598v1.301C140.429,27.091,127.831,27.091,127.831,27.091z
					 M136.39,35.786c0.479,0,0.866-0.388,0.866-0.866v-3.607c0-0.479-0.388-0.866-0.866-0.866h-4.496
					c-0.48,0-0.867,0.388-0.867,0.866v3.607c0,0.479,0.388,0.866,0.867,0.866H136.39z"/>
				<path fill="#185E31" d="M143.332,36.54c0.639-2.146,1.027-4.155,1.187-6.551h3.31c-0.159,2.283-0.502,4.609-1.187,6.551H143.332
					z M145.089,18.737c0-0.82,0.684-1.483,1.506-1.483h2.761l0.708-1.735h3.561l-0.73,1.735h8.742c0.844,0,1.505,0.663,1.505,1.483
					v7.875c0,0.821-0.661,1.529-1.505,1.529h-15.041c-0.821,0-1.506-0.708-1.506-1.529V18.737z M148.558,20.426h11.115v-1.027
					c0-0.48-0.388-0.868-0.867-0.868h-9.381c-0.479,0-0.867,0.388-0.867,0.868V20.426z M148.558,23.666h11.115v-1.94h-11.115V23.666
					z M159.673,24.969h-11.115v1.004c0,0.479,0.388,0.867,0.867,0.867h9.381c0.479,0,0.867-0.388,0.867-0.867V24.969z
					 M160.404,35.81v1.301h-9.791c-0.822,0-1.506-0.663-1.506-1.507V29.35h3.469v5.592c0,0.479,0.388,0.868,0.867,0.868H160.404z
					 M155.543,34.782c-0.57-1.688-0.959-3.583-1.209-5.705h3.355c0.251,1.962,0.639,3.857,1.21,5.705H155.543z M161.659,36.289
					c-0.708-1.85-1.232-4.017-1.575-6.482h3.287c0.319,2.327,0.821,4.518,1.552,6.482H161.659z"/>
			</g>
		</g>
	</g>
</g>
</svg>
